<?xml version="1.0" standalone="no"?>
<!DOCTYPE svg PUBLIC "-//W3C//DTD SVG 20010904//EN"
 "http://www.w3.org/TR/2001/REC-SVG-20010904/DTD/svg10.dtd">
<svg version="1.0" xmlns="http://www.w3.org/2000/svg"
 width="250.000000pt" height="200.000000pt" viewBox="0 0 250.000000 200.000000"
 preserveAspectRatio="xMidYMid meet">

<g transform="translate(0.000000,200.000000) scale(0.100000,-0.100000)"
fill="#000000" stroke="none">
<path d="M1103 1718 l-163 -163 -84 84 -85 84 6 -164 5 -164 -181 -180 -181
-180 198 -200 c108 -110 300 -305 426 -433 l230 -233 56 58 c108 111 646 668
715 741 l69 73 -187 187 c-116 116 -186 194 -183 203 2 7 7 78 10 156 l6 143
-82 -86 -82 -85 -160 160 c-89 89 -163 161 -166 161 -3 0 -78 -73 -167 -162z
m324 0 c136 -136 170 -178 145 -178 -4 0 -72 65 -152 145 l-145 145 -152 -152
c-121 -121 -155 -150 -165 -140 -10 10 20 45 147 172 88 88 162 160 164 160 3
0 74 -69 158 -152z m-14 -66 c136 -136 138 -138 118 -156 -20 -18 -21 -17 -72
28 -31 28 -69 51 -99 60 -27 8 -58 24 -69 35 -26 26 -33 26 -68 -2 -15 -13
-49 -31 -75 -41 -26 -9 -65 -36 -88 -58 -38 -39 -42 -40 -58 -25 -15 16 -8 26
123 157 77 77 142 140 145 140 3 0 67 -62 143 -138z m-512 -98 c52 -52 96
-102 97 -111 9 -40 -19 -32 -104 30 l-89 64 -3 56 c-2 32 -1 57 1 57 2 0 47
-43 98 -96z m827 39 l-3 -57 -89 -63 c-50 -35 -93 -63 -97 -63 -4 0 -9 8 -11
18 -3 11 30 54 92 119 52 57 99 103 103 103 4 0 7 -26 5 -57z m-342 -41 c97
-50 164 -176 164 -309 l0 -36 -23 34 c-21 31 -30 36 -107 51 -110 22 -103 23
-124 -17 -11 -19 -23 -35 -27 -35 -5 0 -18 18 -29 40 -11 22 -24 40 -28 40 -4
0 -48 -9 -99 -21 -83 -19 -93 -24 -103 -50 -21 -50 -33 -34 -27 34 14 151 85
253 198 285 53 16 160 7 205 -16z m-424 -160 c16 -14 17 -47 1 -74 -2 -5 -38
15 -79 42 -74 50 -74 51 -74 96 l0 45 68 -47 c37 -26 75 -54 84 -62z m758 58
c0 -38 -3 -41 -76 -91 -42 -28 -77 -49 -80 -47 -2 2 -5 19 -6 38 -3 31 2 37
72 87 41 29 78 53 82 53 5 0 8 -18 8 -40z m378 -412 c-2 -3 -41 -46 -88 -95
-479 -498 -732 -758 -738 -759 -4 -1 -92 87 -197 195 -104 108 -284 293 -400
411 -116 118 -217 223 -225 233 -12 17 2 34 156 188 93 93 172 169 176 169 30
0 -12 -55 -142 -185 l-151 -151 247 -254 c136 -140 310 -322 387 -405 77 -82
143 -151 146 -153 4 -1 58 53 121 120 62 68 236 250 387 405 150 154 273 285
273 290 0 4 -60 67 -132 138 -160 156 -182 181 -172 196 7 11 357 -329 352
-343z m-1198 282 c54 -37 60 -44 60 -75 0 -19 -3 -35 -6 -35 -3 0 -37 26 -75
57 -50 42 -69 63 -69 81 0 30 9 27 90 -28z m811 4 c-7 -13 -127 -114 -136
-114 -3 0 -5 16 -5 35 0 32 6 38 67 80 59 39 69 43 74 27 4 -9 4 -22 0 -28z
m288 -303 c-11 -14 -86 -93 -167 -174 l-148 -149 -72 164 c-40 90 -72 166 -72
170 0 4 45 46 100 94 l100 87 0 56 0 56 139 -139 139 -139 -19 -26z m-1209
234 c0 -44 0 -44 101 -126 55 -44 103 -87 105 -93 3 -7 -30 -84 -71 -172 l-77
-159 -158 165 c-88 91 -159 169 -160 175 0 11 241 255 252 255 5 0 8 -20 8
-45z m445 -5 c14 -28 30 -48 35 -45 5 3 19 24 32 46 19 34 26 40 48 35 14 -3
53 -11 87 -17 60 -12 62 -13 84 -61 l23 -49 -47 -47 c-46 -47 -47 -49 -41 -97
5 -46 80 -415 89 -442 5 -14 -31 -61 -39 -52 -4 3 -25 105 -47 225 -22 121
-43 222 -47 226 -4 4 -25 20 -46 36 -35 26 -44 28 -69 19 -19 -6 -40 -6 -61 0
-29 9 -36 7 -76 -29 l-43 -39 -33 -197 c-19 -108 -36 -208 -39 -221 l-6 -24
-25 24 -25 25 46 234 c25 129 45 249 45 265 0 24 -9 36 -45 60 -25 17 -45 34
-45 38 0 7 38 87 46 96 4 4 141 38 161 40 7 1 24 -22 38 -49z m-326 -40 c38
-31 79 -96 67 -108 -3 -2 -39 24 -80 58 -64 52 -76 66 -76 91 0 34 -10 39 89
-41z m801 41 c0 -24 -14 -41 -77 -95 -42 -36 -78 -64 -80 -63 -2 2 3 21 10 41
9 26 34 55 77 92 36 29 66 54 68 54 1 0 2 -13 2 -29z m-667 -165 c18 -14 22
-32 9 -40 -5 -3 -16 8 -26 25 -18 31 -12 37 17 15z m465 -26 c-5 -17 -14 -33
-19 -36 -14 -8 -11 35 4 51 20 23 27 17 15 -15z m-464 -49 c7 -11 -68 -398
-78 -409 -9 -8 -98 86 -93 96 2 4 37 78 78 165 40 86 77 157 81 157 4 0 9 -4
12 -9z m194 -10 c21 -7 43 -6 58 0 21 7 32 4 63 -18 l37 -27 43 -234 43 -234
-31 -31 c-16 -17 -33 -29 -35 -26 -4 4 -76 414 -76 431 0 2 -16 12 -35 22 -33
18 -38 18 -70 3 -26 -12 -35 -24 -40 -49 -44 -252 -73 -392 -80 -394 -6 -2
-20 9 -31 24 l-22 27 38 223 c36 218 38 224 70 257 19 19 34 35 35 35 0 0 15
-4 33 -9z m355 -156 c37 -85 67 -158 67 -162 0 -11 -88 -98 -93 -92 -2 2 -21
84 -42 183 -30 142 -35 183 -26 202 6 13 14 24 18 24 5 0 38 -70 76 -155z
m-334 -264 c2 -170 -1 -281 -7 -281 -5 0 -32 26 -59 58 l-51 58 40 214 c38
202 51 246 67 236 4 -3 8 -131 10 -285z m61 258 c0 -5 16 -107 36 -225 l36
-216 -48 -49 c-26 -27 -52 -49 -56 -49 -4 0 -8 128 -8 285 0 283 0 286 20 275
11 -6 20 -15 20 -21z"/>
<path d="M1072 1218 c2 -16 16 -26 51 -37 26 -9 52 -23 57 -31 7 -11 10 -7 10
16 0 28 -5 33 -51 53 -64 26 -71 26 -67 -1z"/>
<path d="M1388 1218 c-38 -16 -48 -26 -48 -44 0 -22 1 -22 28 -8 15 8 39 19
55 24 17 6 27 17 27 30 0 24 -2 24 -62 -2z"/>
<path d="M1230 1080 c0 -5 18 -10 40 -10 22 0 40 5 40 10 0 6 -18 10 -40 10
-22 0 -40 -4 -40 -10z"/>
<path d="M1217 950 c-25 -16 -11 -31 18 -20 16 6 35 6 51 -1 29 -10 44 -5 27
12 -15 15 -76 21 -96 9z"/>
</g>
</svg>
